<svg width="26" height="25" fill="none" xmlns="http://www.w3.org/2000/svg"><path d="M5.768 2.97c0 1.463-.977 2.721-2.755 2.721C1.34 5.691.261 4.505.261 3.043.26 1.542 1.307.217 3.014.217c1.708 0 2.721 1.253 2.754 2.754zM.261 25V7.101h5.507V25H.261zm8.261-11.78c0-2.128-.07-3.906-.14-5.44h4.947l.246 2.372h.104c.697-1.117 2.404-2.754 5.262-2.754 3.486 0 6.102 2.334 6.102 7.355v10.246h-5.507v-9.446c0-2.195-.835-3.869-2.753-3.869-1.463 0-2.195 1.184-2.58 2.16-.14.35-.174.837-.174 1.326V25H8.522V13.22z" fill="#EF7C00"/></svg>