<svg width="30" height="19" fill="none" xmlns="http://www.w3.org/2000/svg"><path d="M29.312 1.237c.21-.714 0-1.237-.99-1.237h-3.284c-.835 0-1.217.453-1.427.95 0 0-1.67 4.171-4.035 6.876-.763.787-1.112 1.036-1.528 1.036-.208 0-.51-.249-.51-.962V1.237C17.537.38 17.295 0 16.6 0h-5.159c-.521 0-.835.396-.835.773 0 .81 1.182.998 1.304 3.28v4.953c0 1.085-.19 1.283-.61 1.283-1.112 0-3.819-4.187-5.425-8.98C5.562.377 5.245.002 4.408.002H1.126C.187.002 0 .454 0 .952c0 .892 1.112 5.31 5.182 11.155 2.712 3.99 6.531 6.154 10.01 6.154 2.086 0 2.344-.48 2.344-1.309v-3.016c0-.96.199-1.154.86-1.154.484 0 1.32.252 3.267 2.174 2.225 2.28 2.593 3.303 3.843 3.303h3.282c.937 0 1.406-.48 1.136-1.428-.294-.944-1.357-2.317-2.768-3.942-.766-.926-1.912-1.924-2.26-2.422-.487-.643-.346-.927 0-1.498.001.002 4-5.77 4.416-7.732z" fill="#D84E4B"/></svg>