<svg width="68" height="68" viewBox="0 0 68 68" fill="none" xmlns="http://www.w3.org/2000/svg">
<rect width="68" height="68" rx="34" fill="#D84E4B"/>
<path d="M18.3883 40.6216C18.6422 40.8642 18.983 41 19.3379 41C19.6928 41 20.0336 40.8642 20.2875 40.6216L34.5 27.0678L48.7097 40.6216C48.9635 40.8642 49.3043 41 49.6592 41C50.0141 41 50.3549 40.8642 50.6088 40.6216C50.7326 40.5037 50.831 40.3627 50.8982 40.2069C50.9654 40.0512 51 39.8839 51 39.7148C51 39.5458 50.9654 39.3785 50.8982 39.2227C50.831 39.067 50.7326 38.926 50.6088 38.8081L35.4922 24.3948C35.2268 24.1417 34.8707 24 34.5 24C34.1293 24 33.7732 24.1417 33.5078 24.3948L18.3912 38.8081C18.2674 38.926 18.169 39.067 18.1018 39.2227C18.0346 39.3785 18 39.5458 18 39.7148C18 39.8839 18.0346 40.0512 18.1018 40.2069C18.169 40.3627 18.2674 40.5037 18.3912 40.6216L18.3883 40.6216Z" fill="white"/>
</svg>
