<svg width="15" height="16" viewBox="0 0 15 16" fill="none" xmlns="http://www.w3.org/2000/svg">
<path d="M14.7916 12.7007L12.6767 14.7469C12.3646 15.0592 11.9508 15.165 11.5478 15.1654C9.76565 15.1134 8.08113 14.2595 6.69803 13.3828C4.42775 11.7719 2.34468 9.77442 1.0373 7.36057C0.535877 6.34836 -0.0524727 5.05686 0.00373975 3.92705C0.00875225 3.50204 0.126177 3.08492 0.433065 2.81097L2.54789 0.749305C2.98704 0.384975 3.41173 0.510941 3.69275 0.935317L5.39414 4.08207C5.57321 4.45486 5.47049 4.85429 5.20331 5.12068L4.42416 5.88023C4.37606 5.94449 4.34544 6.01765 4.34466 6.09726C4.64344 7.22528 5.54858 8.26497 6.34818 8.98047C7.14776 9.69599 8.00724 10.6654 9.12289 10.8949C9.26079 10.9324 9.4297 10.9456 9.52836 10.8561L10.4347 9.95703C10.7472 9.72606 11.1983 9.61316 11.5319 9.80202H11.5478L14.6166 11.5692C15.0672 11.8446 15.1141 12.3769 14.7916 12.7007V12.7007Z" fill="#D84E4B"/>
</svg>
