<svg width="74" height="73" viewBox="0 0 74 73" fill="none" xmlns="http://www.w3.org/2000/svg">
<path d="M37 0C16.5674 0 0 16.2958 0 36.3934C0 56.4911 16.5674 72.7869 37 72.7869C57.4326 72.7869 74 56.4911 74 36.3934C74 16.2958 57.4326 0 37 0ZM48.9011 36.954L30.8636 49.8623C30.7647 49.9322 30.6482 49.9739 30.5267 49.9829C30.4053 49.9918 30.2837 49.9677 30.1753 49.9131C30.0669 49.8586 29.9759 49.7757 29.9123 49.6735C29.8487 49.5714 29.8149 49.454 29.8147 49.3342V23.5339C29.8143 23.4139 29.8477 23.2961 29.9112 23.1936C29.9747 23.0911 30.0658 23.0079 30.1744 22.9532C30.283 22.8986 30.4049 22.8745 30.5266 22.8838C30.6482 22.8931 30.7649 22.9353 30.8636 23.0059L48.9011 35.906C48.9863 35.9653 49.0558 36.0438 49.1038 36.135C49.1518 36.2262 49.1768 36.3273 49.1768 36.43C49.1768 36.5327 49.1518 36.6338 49.1038 36.725C49.0558 36.8162 48.9863 36.8947 48.9011 36.954V36.954Z" fill="#D84E4B"/>
</svg>
