<svg width="25" height="25" fill="none" xmlns="http://www.w3.org/2000/svg"><path d="M5.507 2.754c0 1.462-.977 2.72-2.755 2.72C1.08 5.474 0 4.287 0 2.825 0 1.325 1.046 0 2.754 0c1.707 0 2.72 1.253 2.753 2.754zM0 24.783V6.884h5.507v17.899H0zm8.26-11.781c0-2.127-.07-3.905-.14-5.44h4.949l.245 2.372h.104c.697-1.116 2.404-2.753 5.262-2.753 3.487 0 6.103 2.333 6.103 7.355v10.246h-5.508v-9.447c0-2.194-.835-3.868-2.753-3.868-1.462 0-2.195 1.184-2.58 2.16-.14.35-.174.837-.174 1.326v9.829H8.261v-11.78z" fill="#D84E4B"/></svg>