<svg width="15" height="16" fill="none" xmlns="http://www.w3.org/2000/svg"><path d="M14.792 12.7l-2.115 2.047c-.312.312-.726.418-1.13.419-1.781-.053-3.466-.906-4.849-1.783-2.27-1.611-4.353-3.608-5.66-6.022C.535 6.348-.053 5.057.003 3.927c.005-.425.122-.842.43-1.116L2.547.75c.439-.364.864-.238 1.145.186l1.701 3.147a.897.897 0 01-.19 1.039l-.78.76a.368.368 0 00-.08.216c.3 1.128 1.205 2.168 2.004 2.884.8.715 1.66 1.684 2.775 1.914.138.037.307.05.405-.039l.907-.899c.312-.23.763-.344 1.097-.155h.016l3.069 1.767c.45.276.497.808.175 1.132z" fill="#EF7C00"/></svg>